<?xml version="1.0" encoding="utf-8"?>
<!-- Generator: Adobe Illustrator 16.0.0, SVG Export Plug-In . SVG Version: 6.00 Build 0)  -->
<!DOCTYPE svg PUBLIC "-//W3C//DTD SVG 1.1//EN" "http://www.w3.org/Graphics/SVG/1.1/DTD/svg11.dtd">
<svg version="1.1" id="Layer_1" xmlns="http://www.w3.org/2000/svg" xmlns:xlink="http://www.w3.org/1999/xlink" x="0px" y="0px"
	 width="129.3px" height="20.9px" viewBox="0 0 129.3 20.9" style="enable-background:new 0 0 129.3 20.9;" xml:space="preserve">
<g>
	<path style="fill:#171C1C;" d="M25.6,7.4c1,1,1.5,2.4,1.5,4.1v9.4h-4.9v-8c0-0.8-0.2-1.5-0.7-2c-0.4-0.5-1-0.7-1.8-0.7
		c-0.9,0-1.5,0.3-2,0.9s-0.8,1.4-0.8,2.4v7.3H12v-8c0-0.8-0.2-1.5-0.7-2c-0.4-0.5-1-0.7-1.8-0.7c-0.9,0-1.5,0.3-2.1,0.9
		c-0.5,0.6-0.8,1.4-0.8,2.4v7.3H1.9V6.1h4.9v2.4c0.5-0.9,1.2-1.5,2-2c0.8-0.4,1.8-0.7,2.8-0.7c1.2,0,2.2,0.3,3.1,0.9
		c0.9,0.6,1.5,1.4,1.8,2.4c0.5-1.1,1.2-1.9,2-2.5c0.9-0.6,1.9-0.8,3.1-0.8C23.3,5.9,24.6,6.4,25.6,7.4z"/>
	<path style="fill:#171C1C;" d="M41.5,6.9c1.2,0.6,2.2,1.5,2.9,2.7c0.7,1.1,1,2.5,1,4c0,1.5-0.3,2.9-1,4c-0.7,1.1-1.6,2-2.9,2.7
		c-1.2,0.6-2.6,0.9-4.3,0.9c-1.6,0-3-0.3-4.3-0.9c-1.2-0.6-2.2-1.5-2.8-2.7c-0.7-1.1-1-2.5-1-4c0-1.5,0.3-2.8,1-4
		c0.7-1.1,1.6-2,2.8-2.7c1.2-0.6,2.6-0.9,4.3-0.9C38.8,5.9,40.3,6.2,41.5,6.9z M34.9,10.9c-0.6,0.7-0.9,1.6-0.9,2.7
		c0,1.1,0.3,2,0.9,2.7c0.6,0.7,1.4,1,2.3,1c1,0,1.7-0.3,2.3-1c0.6-0.7,0.9-1.6,0.9-2.7c0-1.1-0.3-2-0.9-2.7c-0.6-0.7-1.4-1-2.3-1
		C36.3,9.9,35.5,10.2,34.9,10.9z"/>
	<path style="fill:#171C1C;" d="M62.9,0.6v20.4H58V19c-0.5,0.7-1.1,1.2-1.9,1.6c-0.7,0.4-1.6,0.5-2.5,0.5c-1.4,0-2.6-0.3-3.6-1
		s-1.9-1.5-2.4-2.7c-0.6-1.2-0.9-2.5-0.9-4c0-1.5,0.3-2.8,0.9-4c0.6-1.1,1.4-2,2.4-2.6c1-0.6,2.2-0.9,3.6-0.9c1,0,1.8,0.2,2.6,0.5
		S57.4,7.4,58,8V0.6H62.9z M57.1,16.3c0.6-0.7,0.9-1.6,0.9-2.7c0-1.1-0.3-2-0.9-2.7c-0.6-0.7-1.4-1-2.3-1s-1.7,0.3-2.3,1
		c-0.6,0.7-0.9,1.6-0.9,2.7c0,1.1,0.3,2,0.9,2.7c0.6,0.7,1.4,1,2.3,1S56.5,16.9,57.1,16.3z"/>
	<path style="fill:#171C1C;" d="M78.8,8.1c1.3,1.4,1.9,3.4,1.9,5.9c0,0.4,0,0.7,0,0.9H70.4c0.2,0.8,0.6,1.5,1.2,1.9
		c0.6,0.4,1.3,0.7,2.1,0.7c0.6,0,1.3-0.1,1.9-0.4c0.6-0.3,1.1-0.6,1.6-1.1l2.6,2.6c-0.8,0.9-1.7,1.5-2.8,2c-1.1,0.4-2.3,0.7-3.7,0.7
		c-1.6,0-3-0.3-4.2-0.9c-1.2-0.6-2.1-1.5-2.7-2.6c-0.6-1.1-0.9-2.5-0.9-4c0-1.5,0.3-2.9,1-4c0.6-1.2,1.5-2.1,2.7-2.7
		c1.2-0.6,2.5-0.9,4.1-0.9C75.7,5.9,77.5,6.6,78.8,8.1z M76,12.2c0-0.9-0.3-1.6-0.8-2.1c-0.5-0.5-1.2-0.8-2-0.8
		c-0.8,0-1.4,0.3-1.9,0.8c-0.5,0.5-0.9,1.2-1,2.1H76z"/>
	<path style="fill:#171C1C;" d="M90.2,6.6C91,6.1,91.9,5.9,93,5.9v4.5c-0.2,0-0.4,0-0.7,0c-1.2,0-2.1,0.3-2.8,0.8s-1.1,1.3-1.2,2.2
		v7.6h-4.9V6.1h4.9v2.5C88.7,7.7,89.4,7,90.2,6.6z"/>
	<path style="fill:#171C1C;" d="M108.8,7.4c1,1,1.5,2.4,1.5,4.1v9.4h-4.9v-8c0-0.8-0.2-1.5-0.7-2c-0.5-0.5-1.1-0.7-1.8-0.7
		c-0.8,0-1.5,0.3-2,0.8c-0.5,0.5-0.8,1.2-0.9,2v7.9h-4.9V6.1h4.9v2.4c0.5-0.9,1.2-1.5,2-1.9c0.8-0.4,1.8-0.7,2.9-0.7
		C106.5,5.9,107.8,6.4,108.8,7.4z"/>
</g>
<g>
	<path style="fill:#171C1C;" d="M116,15.9v0.5c0,0.4,0.1,0.8,0.3,1.1c0.5,0.7,1.2,1,2.3,1c2.3,0,5-1.8,8.1-5.4
		c0.5-0.6,1-0.9,1.4-0.9c0.2,0,0.4,0.1,0.6,0.3c0.1,0.1,0.2,0.3,0.2,0.4c0,0.7-0.9,2-2.7,3.7c-1.4,1.4-2.9,2.5-4.5,3.3
		c-1.6,0.9-3.1,1.3-4.4,1.3c-1.4,0-2.5-0.5-3.3-1.5c-0.5-0.7-0.8-1.6-0.8-2.7c0-3.1,1.5-6.2,4.4-9.2c2.4-2.5,4.5-3.7,6.3-3.7
		c0.5,0,0.9,0.1,1.3,0.4c0.5,0.4,0.7,0.9,0.7,1.5c0,1-0.5,2.2-1.4,3.6C122.7,12.7,119.8,14.8,116,15.9z M116.7,13.7
		c1.3-0.4,2.3-1,3.1-1.5c1.3-1,2.3-2.1,3.1-3.4c0.3-0.4,0.4-0.8,0.4-1.2c0-0.4-0.2-0.6-0.5-0.6c-0.5,0-1.2,0.4-2.1,1.1
		C119,9.4,117.7,11.3,116.7,13.7z"/>
</g>
<g>
</g>
<g>
</g>
<g>
</g>
<g>
</g>
<g>
</g>
<g>
</g>
</svg>
